# xmcd
#
# Track frame offsets:
#	150
#	21358
#	37435
#	52391
#	77287
#	105435
#
# Disc length: 1804 seconds
#
# Revision: 1
# Processed by: cddbd v1.4PL0 Copyright (c) Steve Scherf et al.
# Submitted via: audiograbber 1.81.02
#
DISCID=4b070a06
DTITLE=Bauchklang - Live @ FM4 Frequency Festival (14.08.2003)
DYEAR=2003
DGENRE=Vocal
TTITLE0=Bauchklang - 01 - Don't See Happiness
TTITLE1=Bauchklang - 02 - Fire Below
TTITLE2=Bauchklang - 03 - 
TTITLE3=Bauchklang - 04 - 
TTITLE4=Bauchklang - 05 - 
TTITLE5=Bauchklang - 06 - Irie
EXTD=
EXTT0=
EXTT1=
EXTT2=
EXTT3=
EXTT4=
EXTT5=
PLAYORDER=
